# xmcd
# 
# Track frame offsets:
#     150
#     19320
#     46612
#     65925
#     85375
#     110470
#     130810
#     159075
#     176022
#     205612
# 
# Disc length: 2980
# 
# Revision: 1
# Processed by: cddbd v1.5.2PL0 Copyright (c) Steve Scherf et al.
# Submitted via: fre:ac v1.0.17
# 
DISCID=7f0ba20a
DTITLE=山崎ハコ - 飛・び・ま・す
DYEAR=0
DGENRE=Folk
TTITLE0=望郷
TTITLE1=さすらい
TTITLE2=かざぐるま
TTITLE3=橋向こうの家
TTITLE4=サヨナラの鐘
TTITLE5=竹とんぼ
TTITLE6=影が見えない
TTITLE7=気分を変えて
TTITLE8=飛びます
TTITLE9=子守唄
EXTD=
EXTT0=
EXTT1=
EXTT2=
EXTT3=
EXTT4=
EXTT5=
EXTT6=
EXTT7=
EXTT8=
EXTT9=
PLAYORDER=
